<svg width="53" height="53" viewBox="0 0 53 53" fill="none" xmlns="http://www.w3.org/2000/svg">
<path fill-rule="evenodd" clip-rule="evenodd" d="M5.77148 9.70291C8.5804 8.08081 11.5086 6.10429 18.3021 7.04166C21.3481 7.49785 23.8048 8.66376 25.5622 10.1841C28.9575 12.9722 32.1207 17.5082 32.3528 24.148C32.198 27.7146 31.5729 30.6611 30.0272 33.4313L30.3999 33.6553C30.6184 33.3171 30.8391 32.9412 31.0673 32.5113C32.1207 30.4075 32.47 29.267 33.1741 27.265C34.4626 23.7931 36.6871 22.6276 39.8504 21.2336C39.6153 17.2801 41.021 14.239 44.2991 12.6173C46.4064 11.5781 45.2352 12.1611 47.345 11.35C46.5236 9.11995 42.8934 6.10429 41.021 4.81153C36.4522 1.6691 28.723 -1.9296 18.3021 1.21291C14.2028 2.50559 8.23063 5.97752 5.77148 9.70291V9.70291Z" fill="#7C2866"/>
<path fill-rule="evenodd" clip-rule="evenodd" d="M19.0037 27.0369C20.1744 25.7701 20.9957 24.376 21.348 22.8557C22.2842 30.3061 17.1285 34.1329 10.2206 34.1329C5.30237 34.1329 1.20298 30.078 0.0342975 24.4773C-0.204207 29.5787 0.730989 33.5817 5.06734 36.8191C7.05742 38.34 9.98562 39.3786 13.2665 39.4804C16.3095 39.4804 19.3555 38.4413 21.2278 36.9204C22.6336 35.78 24.0393 33.9048 24.9754 31.9283C27.0851 27.5185 26.6156 21.563 23.8047 17.6094C22.1669 15.3035 19.7048 13.7827 16.6618 13.5546C14.9044 13.4278 13.3813 13.6559 12.0954 14.1376C10.6872 14.467 9.40176 15.1767 8.23058 16.2159C4.9501 19.3584 4.59826 24.376 7.52646 27.3917C10.4551 30.4074 15.4906 30.4074 18.7687 27.265C18.7687 27.1636 18.8864 27.1636 19.0037 27.0369V27.0369Z" fill="#7C2866"/>
<path fill-rule="evenodd" clip-rule="evenodd" d="M43.9471 27.3917C42.4266 27.5184 41.1357 27.8479 40.3168 28.5576C39.0289 29.7231 37.0388 33.0936 36.2175 34.3609C30.3631 43.4589 22.868 46.8295 11.5084 44.8529C10.1033 44.5993 7.99593 43.7883 6.8252 43.7883C9.63367 46.4745 11.5084 48.2235 15.4905 49.9719C23.3375 53.3425 31.8836 52.6327 39.3807 48.4516C44.766 45.4354 48.7481 40.8994 50.8574 34.6144C52.3804 30.1792 53.3166 22.3994 51.2073 18.3191C50.8574 17.6094 50.5057 17.7361 50.2711 17.508C46.8753 15.9877 43.9471 18.9021 43.5973 21.8165C45.4701 24.1478 49.8015 27.3917 43.9471 27.3917V27.3917Z" fill="#7C2866"/>
<path fill-rule="evenodd" clip-rule="evenodd" d="M49.8017 15.8866C49.3346 14.4672 49.2173 14.1378 48.8656 13.428C46.4065 14.3659 45.5876 12.3893 43.2457 14.9488C41.9573 16.2161 41.2532 19.1305 41.9572 21.2338C43.5975 18.7756 43.8296 16.4692 49.8017 15.8866Z" fill="#7C2866"/>
</svg>
