<svg width="129" height="128" viewBox="0 0 129 128" fill="none" xmlns="http://www.w3.org/2000/svg">
<path fill-rule="evenodd" clip-rule="evenodd" d="M3.66117 106.483C-1.22039 111.365 -1.22039 119.28 3.66116 124.161C8.54272 129.043 16.4573 129.043 21.3388 124.161L64.1611 81.3389L106.983 124.161C111.865 129.043 119.78 129.043 124.661 124.161C129.543 119.28 129.543 111.365 124.661 106.483L81.8388 63.6612L124.161 21.3388C129.043 16.4573 129.043 8.54272 124.161 3.66117C119.28 -1.22039 111.365 -1.22039 106.484 3.66116L64.1611 45.9835L21.8388 3.66117C16.9572 -1.22038 9.04266 -1.22039 4.16111 3.66117C-0.720448 8.54272 -0.720448 16.4573 4.1611 21.3388L46.4835 63.6612L3.66117 106.483Z" fill="#D0477F"/>
</svg>
