<svg width="360" height="53" viewBox="0 0 360 53" fill="none" xmlns="http://www.w3.org/2000/svg">
<g clip-path="url(#clip0_601_114)">
<path fill-rule="evenodd" clip-rule="evenodd" d="M19.1366 30.6001C18.394 30.0348 17.2156 29.782 15.5552 29.782H6.42268V38.0663H15.5552C17.2156 38.0663 18.394 37.7986 19.1366 37.2485C19.9674 36.5941 20.4046 35.5082 20.4046 33.902C20.4046 32.3402 19.9674 31.2545 19.1366 30.6001ZM15.8606 17.6602H6.42268V24.7401H15.8606C18.5256 24.7401 19.7921 23.8325 19.7921 21.2298C19.7921 18.612 18.5256 17.6602 15.8606 17.6602V17.6602ZM16.7336 43.064H0V42.3648C0.742593 42.0526 1.13468 41.5022 1.13468 40.7587V15.0127C1.13468 14.1945 0.742593 13.674 0 13.4063V12.6775H16.5598C22.2819 12.6775 25.1236 15.3698 25.1236 20.7093C25.1236 23.6542 24.0308 25.7811 21.8031 27.1345C24.5114 28.4286 25.8662 30.823 25.8662 34.3333C25.8662 40.5355 22.1518 43.064 16.7336 43.064V43.064Z" fill="#7C2866"/>
<path fill-rule="evenodd" clip-rule="evenodd" d="M56.9784 36.6388V44.4026H56.4531C56.1925 43.4508 55.7556 43.0642 55.1431 43.0642H32.9028V42.365C33.6468 42.0527 34.0393 41.5023 34.0393 40.7588V15.0128C34.0393 14.1947 33.6468 13.6742 32.9028 13.4065V12.6776H54.7073C55.3617 12.6776 55.7556 12.2019 55.9738 11.1904H56.5849V19.103H55.9738C55.7556 18.1364 55.3617 17.6603 54.7073 17.6603H39.3255V24.8738H49.3311C49.9869 24.8738 50.3807 24.3981 50.5991 23.4759H51.2116V31.1208H50.5991C50.3807 30.1688 49.9869 29.6928 49.3311 29.6928H39.3255V38.0665H55.1431C55.7556 38.0665 56.1925 37.5908 56.4531 36.6388H56.9784V36.6388Z" fill="#7C2866"/>
<path fill-rule="evenodd" clip-rule="evenodd" d="M76.2936 20.4416L72.3169 31.1207H80.2699L76.3818 20.4416H76.2936V20.4416ZM91.6736 43.064H82.7177V42.3648C83.4589 42.1419 83.8525 41.7104 83.8525 40.9816C83.8525 40.6693 83.7209 40.1933 83.5022 39.5835L81.8867 35.2853H70.7436L69.0832 39.5835C68.8645 40.1933 68.7358 40.6693 68.7358 41.0115C68.7358 41.6211 69.1265 42.0526 69.959 42.3648V43.064H61.8311V42.3648C62.5736 42.1419 63.2726 41.3683 63.7969 39.9701L72.7975 16.6191C73.0612 15.9349 73.1914 15.325 73.1914 14.8492C73.1914 14.15 72.8409 13.674 72.1853 13.4063V12.6775H80.8387V13.4063C80.1381 13.6295 79.7879 14.0162 79.7879 14.6705C79.7879 15.0572 79.9195 15.5778 80.1381 16.1431L89.4444 39.5835C89.7949 40.4165 90.0569 40.9816 90.2321 41.2792C90.6257 41.8443 91.1063 42.231 91.6736 42.3648V43.064V43.064Z" fill="#7C2866"/>
<path fill-rule="evenodd" clip-rule="evenodd" d="M116.188 12.6775H123.354V13.4063C122.611 13.674 122.262 14.1945 122.262 15.0127V32.0279C122.262 36.3263 121.301 39.3306 119.422 41.0114C117.543 42.7069 114.44 43.4953 110.114 43.4953C105.877 43.4953 102.819 42.707 100.94 40.9816C98.974 39.1968 98.0129 36.237 98.0129 32.0279V15.0127C98.0129 14.1945 97.6175 13.674 96.833 13.4063V12.6775H104.522V13.4063C103.736 13.674 103.343 14.1945 103.343 15.0127V30.1241C103.343 32.1618 103.516 33.7681 103.91 34.8983C104.479 36.5941 105.572 37.6351 107.144 38.0663C108.018 38.2895 109.066 38.4085 110.333 38.4085C111.644 38.4085 112.736 38.2895 113.61 38.0663C116.101 37.412 117.324 34.8538 117.324 30.3769V15.0127C117.324 14.1945 116.931 13.674 116.188 13.4063V12.6775V12.6775Z" fill="#7C2866"/>
<path fill-rule="evenodd" clip-rule="evenodd" d="M153.024 11.1904V19.103H152.413C152.194 18.1364 151.757 17.6603 151.102 17.6603H143.544V40.7588C143.544 41.5321 143.936 42.0527 144.679 42.365V43.0642H137.033V42.365C137.775 42.0527 138.169 41.5023 138.169 40.7588V17.6603H130.61C129.998 17.6603 129.561 18.1364 129.3 19.103H128.731V11.1904H129.3C129.519 12.2019 129.954 12.6776 130.61 12.6776H151.102C151.757 12.6776 152.194 12.2019 152.413 11.1904H153.024V11.1904Z" fill="#7C2866"/>
<path fill-rule="evenodd" clip-rule="evenodd" d="M173.738 12.6775H183.175V13.4063C182.302 13.5402 181.296 14.5815 180.205 16.5298L172.297 30.3324V40.7587C172.297 41.5022 172.689 42.0526 173.433 42.3648V43.064H165.786V42.3648C166.528 42.0526 166.922 41.5022 166.922 40.7587V30.3324L159.057 16.5298C158.488 15.5778 158.095 14.9233 157.833 14.626C157.265 13.9271 156.698 13.5402 156.129 13.4063V12.6775H165.699V13.4063C164.868 13.5402 164.476 13.9716 164.476 14.7154C164.476 15.0127 164.738 15.6226 165.218 16.5298L169.674 24.6507L174.174 16.5298C174.656 15.6226 174.918 15.0127 174.918 14.7154C174.918 13.9716 174.525 13.5402 173.738 13.4063V12.6775V12.6775Z" fill="#7C2866"/>
<path fill-rule="evenodd" clip-rule="evenodd" d="M288.421 30.6001C287.676 30.0348 286.497 29.782 284.838 29.782H275.705V38.0663H284.838C286.497 38.0663 287.676 37.7986 288.421 37.2485C289.25 36.5941 289.687 35.5082 289.687 33.902C289.687 32.3402 289.25 31.2545 288.421 30.6001ZM285.143 17.6602H275.705V24.7401H285.143C287.808 24.7401 289.075 23.8325 289.075 21.2298C289.075 18.612 287.808 17.6602 285.143 17.6602V17.6602ZM286.016 43.064H269.282V42.3648C270.025 42.0526 270.417 41.5022 270.417 40.7587V15.0127C270.417 14.1945 270.025 13.674 269.282 13.4063V12.6775H285.842C291.566 12.6775 294.406 15.3698 294.406 20.7093C294.406 23.6542 293.313 25.7811 291.086 27.1345C293.794 28.4286 295.149 30.823 295.149 34.3333C295.149 40.5355 291.436 43.064 286.016 43.064V43.064Z" fill="#7C2866"/>
<path fill-rule="evenodd" clip-rule="evenodd" d="M322.155 20.6646C320.581 18.4041 318.397 17.2736 315.6 17.2736C312.89 17.2736 310.793 18.4041 309.177 20.6646C307.779 22.6132 307.036 25.0076 307.036 27.8189C307.036 30.6447 307.736 33.0245 309.132 35.0323C310.749 37.2782 312.89 38.4086 315.6 38.4086C318.265 38.4086 320.449 37.323 322.066 35.1216C323.508 33.1584 324.207 30.7786 324.207 27.9972C324.207 25.082 323.508 22.6577 322.155 20.6646ZM326.043 38.9739C323.465 42.0527 319.97 43.4953 315.6 43.4953C313.678 43.4953 311.842 43.1382 310.094 42.4542C307.255 41.2793 305.071 39.2417 303.584 36.5048C302.23 33.9912 301.531 31.0759 301.531 27.8189C301.531 23.3566 302.711 19.6681 305.114 16.7976C307.691 13.7189 311.188 12.157 315.6 12.157C321.718 12.157 326.567 15.7566 328.664 21.4827C329.363 23.4014 329.712 25.558 329.712 28.0418C329.712 32.4296 328.489 36.0736 326.043 38.9739V38.9739Z" fill="#7C2866"/>
<path fill-rule="evenodd" clip-rule="evenodd" d="M360 43.064H350.302V42.3648C351.042 42.1419 351.393 41.755 351.393 41.1898C351.393 40.8923 351.174 40.3717 350.737 39.6728L346.018 32.1618L341.518 39.4051C340.995 40.2378 340.775 40.8032 340.775 41.1005C340.775 41.8443 341.169 42.2755 341.998 42.3648V43.064H332.605V42.3648C332.824 42.3648 332.999 42.3203 333.217 42.2755C333.608 42.1419 334.441 41.1005 335.707 39.1523L343.091 27.566L336.319 16.5298L335.095 14.4922C334.614 13.8527 333.915 13.4511 333.086 13.4063V12.6775H342.959V13.4063C342.218 13.6295 341.868 14.061 341.868 14.7154C341.868 15.102 342.13 15.7117 342.654 16.5298L346.455 22.6576L350.388 16.5298C350.956 15.6226 351.263 14.9682 351.263 14.5815C351.263 13.9271 350.824 13.5402 349.994 13.4063V12.6775H359.564V13.4063C358.645 13.4511 357.947 14.061 357.335 15.0572L356.419 16.5298L349.384 27.2088L356.811 39.1523C357.554 40.3717 357.991 41.0115 358.079 41.1453C358.602 41.7998 359.257 42.231 360 42.3648V43.064V43.064Z" fill="#7C2866"/>
<path fill-rule="evenodd" clip-rule="evenodd" d="M203.916 9.70291C206.724 8.08081 209.653 6.10429 216.446 7.04166C219.492 7.49785 221.949 8.66376 223.706 10.1841C227.102 12.9722 230.265 17.5082 230.497 24.148C230.342 27.7146 229.717 30.6611 228.171 33.4313L228.544 33.6553C228.762 33.3171 228.983 32.9412 229.211 32.5113C230.265 30.4075 230.614 29.267 231.318 27.265C232.607 23.7931 234.831 22.6276 237.994 21.2336C237.759 17.2801 239.165 14.239 242.443 12.6173C244.55 11.5781 243.379 12.1611 245.489 11.35C244.668 9.11995 241.037 6.10429 239.165 4.81153C234.596 1.6691 226.867 -1.9296 216.446 1.21291C212.347 2.50559 206.375 5.97752 203.916 9.70291V9.70291Z" fill="#7C2866"/>
<path fill-rule="evenodd" clip-rule="evenodd" d="M217.148 27.0369C218.318 25.7701 219.14 24.376 219.492 22.8557C220.428 30.3061 215.272 34.1329 208.365 34.1329C203.446 34.1329 199.347 30.078 198.178 24.4773C197.94 29.5787 198.875 33.5817 203.211 36.8191C205.201 38.34 208.13 39.3786 211.411 39.4804C214.454 39.4804 217.5 38.4413 219.372 36.9204C220.778 35.78 222.183 33.9048 223.119 31.9283C225.229 27.5185 224.76 21.563 221.949 17.6094C220.311 15.3035 217.849 13.7827 214.806 13.5546C213.048 13.4278 211.525 13.6559 210.239 14.1376C208.831 14.467 207.546 15.1767 206.375 16.2159C203.094 19.3584 202.742 24.376 205.671 27.3917C208.599 30.4074 213.635 30.4074 216.913 27.265C216.913 27.1636 217.03 27.1636 217.148 27.0369V27.0369Z" fill="#7C2866"/>
<path fill-rule="evenodd" clip-rule="evenodd" d="M242.091 27.3917C240.571 27.5184 239.28 27.8479 238.461 28.5576C237.173 29.7231 235.183 33.0936 234.362 34.3609C228.507 43.4589 221.012 46.8295 209.652 44.8529C208.247 44.5993 206.14 43.7883 204.969 43.7883C207.778 46.4745 209.652 48.2235 213.635 49.9719C221.482 53.3425 230.028 52.6327 237.525 48.4516C242.91 45.4354 246.892 40.8994 249.001 34.6144C250.524 30.1792 251.461 22.3994 249.351 18.3191C249.001 17.6094 248.65 17.7361 248.415 17.508C245.019 15.9877 242.091 18.9021 241.741 21.8165C243.614 24.1478 247.946 27.3917 242.091 27.3917V27.3917Z" fill="#7C2866"/>
<path fill-rule="evenodd" clip-rule="evenodd" d="M247.946 15.8866C247.479 14.4672 247.361 14.1378 247.01 13.428C244.55 14.3659 243.732 12.3893 241.39 14.9488C240.101 16.2161 239.397 19.1305 240.101 21.2338C241.742 18.7756 241.974 16.4692 247.946 15.8866Z" fill="#7C2866"/>
</g>
<defs>
<clipPath id="clip0_601_114">
<rect width="360" height="52.1053" fill="white"/>
</clipPath>
</defs>
</svg>
